<svg xmlns="http://www.w3.org/2000/svg" xmlns:xlink="http://www.w3.org/1999/xlink" viewBox="0 0 32 32"><defs><style>.cls-1{fill:url(#Namnlös_övertoning);}</style><linearGradient id="Namnlös_övertoning" x1="-2151.8" y1="-2140.23" x2="-2150.8" y2="-2140.23" gradientTransform="matrix(31.99, 0, 0, -32, 68840.26, -68471.32)" gradientUnits="userSpaceOnUse"><stop offset="0" stop-color="#00bfff"/><stop offset="1" stop-color="#6619ff"/></linearGradient></defs><title>exodus</title><g id="Lager_2" data-name="Lager 2"><g id="Lager_1-2" data-name="Lager 1"><path class="cls-1" d="M22.4,16,32,25.6H28.6a2,2,0,0,1-1.5-.6l-8.9-9,8.9-8.9a2.2,2.2,0,0,1,1.5-.6H32ZM4.9,7.1a2.2,2.2,0,0,0-1.5-.6H0L9.6,16,0,25.6H3.4A2,2,0,0,0,4.9,25l8.9-8.9C13.8,16,4.9,7.1,4.9,7.1ZM16,18.2,7.1,27.1a2.2,2.2,0,0,0-.6,1.5V32l9.6-9.6L25.7,32V28.6a2,2,0,0,0-.6-1.5Zm0-4.4,8.9-8.9a2.2,2.2,0,0,0,.6-1.5V0L16,9.6,6.4,0V3.4A2,2,0,0,0,7,4.9Z"/></g></g></svg>